<?xml version="1.0" encoding="utf-8"?><svg viewBox="0 0 427 298" xmlns="http://www.w3.org/2000/svg" xmlns:xlink="http://www.w3.org/1999/xlink"><style>:root>svg{display:none}:root>svg:target{display:block}</style><svg fill="none" viewBox="0 0 32 32" id="arrow_cards" xmlns="http://www.w3.org/2000/svg"><path d="M8.607 23.643l14-14M14.947 9.054h8.25v8.25" stroke="#fff" stroke-width="2" stroke-linecap="round" stroke-linejoin="round"/></svg><svg fill="none" viewBox="0 0 48 48" id="arrow_hover" xmlns="http://www.w3.org/2000/svg"><path d="M12.911 35.464l21-21M22.42 13.58h12.375v12.374" stroke="#fff" stroke-width="2" stroke-linecap="round" stroke-linejoin="round"/></svg><svg fill="none" viewBox="0 0 50 111" id="arrow_up" xmlns="http://www.w3.org/2000/svg"><path fill-rule="evenodd" clip-rule="evenodd" d="M27.777 11.166v99.456h-5.555V11.166L4.742 28.51.813 24.613 25 .615l24.186 23.998-3.928 3.897-17.48-17.344z" fill="#fff"/></svg><svg fill="none" viewBox="0 0 40 40" id="be" xmlns="http://www.w3.org/2000/svg"><path d="M20 40c11.046 0 20-8.954 20-20S31.046 0 20 0 0 8.954 0 20s8.954 20 20 20z" fill="#BDCDD8"/><path d="M28.77 15.025h-5.762v-1.431h5.763v1.431zm-9.599 5.87c.372.576.558 1.276.558 2.096 0 .85-.21 1.611-.636 2.284a3.96 3.96 0 01-1.012 1.124c-.456.35-.995.59-1.615.719a9.985 9.985 0 01-2.02.193H8V13h6.911c1.743.028 2.978.533 3.707 1.524.438.608.654 1.338.654 2.186 0 .875-.22 1.575-.661 2.107-.246.298-.609.569-1.09.814.728.266 1.28.686 1.65 1.264zm-7.87-2.253h3.028c.622 0 1.125-.118 1.513-.355.387-.236.58-.655.58-1.258 0-.666-.256-1.107-.769-1.32-.44-.148-1.005-.224-1.689-.224H11.3v3.157zm5.413 4.145c0-.743-.304-1.257-.91-1.533-.34-.157-.818-.237-1.432-.243H11.3v3.814h3.025c.621 0 1.102-.081 1.449-.25.626-.313.94-.906.94-1.788zm14.195-2.328c.07.468.101 1.147.088 2.035h-7.463c.04 1.03.396 1.751 1.07 2.163.408.259.9.385 1.478.385.61 0 1.106-.154 1.488-.47.208-.168.392-.405.55-.704h2.736c-.072.609-.401 1.226-.993 1.853-.917.997-2.203 1.497-3.855 1.497-1.365 0-2.568-.422-3.611-1.262-1.04-.843-1.563-2.21-1.563-4.106 0-1.779.469-3.14 1.41-4.087.945-.95 2.164-1.422 3.667-1.422.891 0 1.694.16 2.41.48.715.32 1.305.824 1.77 1.517.421.611.692 1.317.818 2.12zm-2.693.267c-.05-.712-.288-1.252-.716-1.62-.425-.37-.956-.555-1.589-.555-.689 0-1.22.198-1.599.588-.38.389-.617.918-.714 1.587h4.618z" fill="#2E3646"/></svg><svg fill="none" viewBox="0 0 250 262" id="elipse_small" xmlns="http://www.w3.org/2000/svg"><circle cx="179" cy="179" r="179" fill="#E8E4FF"/></svg><svg fill="none" viewBox="0 0 100 100" id="ellipse" xmlns="http://www.w3.org/2000/svg"><circle cx="50" cy="50" r="50" fill="#C5DBF1"/></svg><svg fill="none" viewBox="0 0 286 298" id="ellipse_big" xmlns="http://www.w3.org/2000/svg"><circle opacity=".4" cx="215" cy="215" r="215" fill="#E8E4FF"/></svg><svg fill="none" viewBox="0 0 40 40" id="facebook" xmlns="http://www.w3.org/2000/svg"><path d="M20 0c11.046 0 20 8.955 20 20 0 11.046-8.954 20-20 20S0 31.046 0 20C0 8.955 8.954 0 20 0z" fill="#BDCDD8"/><path d="M22.435 13.768h2.578V9.961h-3.03v.014c-3.672.13-4.424 2.194-4.49 4.361h-.008v1.901h-2.5v3.729h2.5v9.995h3.768v-9.995h3.086l.596-3.729h-3.681V15.09c0-.733.487-1.32 1.181-1.32z" fill="#2E3646"/></svg><svg fill="none" viewBox="0 0 233 226" id="first_1" xmlns="http://www.w3.org/2000/svg"><path fill-rule="evenodd" clip-rule="evenodd" d="M2.977 2.564c38.052 8.254 55.745 50.283 86.605 74.012 29.565 22.735 68.106 31.586 89.988 61.779 28.044 38.697 64.019 85.228 49.552 130.767-14.459 45.514-73.089 57.008-115.927 78.169-35.292 17.433-70.85 33.401-110.218 33.54-39.477.139-82.19-5.563-110.785-32.762-27.42-26.08-20.375-70.093-34.324-105.259-15.405-38.835-56.556-69.471-51.429-110.93 5.301-42.87 41.398-76.158 77.5-99.912C-81.066 8.942-37.968-6.319 2.977 2.564z" fill="#E6F2FF"/></svg><svg fill="none" viewBox="0 0 427 101" id="first_2" xmlns="http://www.w3.org/2000/svg"><path fill-rule="evenodd" clip-rule="evenodd" d="M196.977-277.436c38.052 8.254 55.745 50.283 86.604 74.012 29.566 22.735 68.107 31.586 89.989 61.779 28.044 38.697 64.019 85.228 49.552 130.767-14.459 45.514-73.089 57.008-115.927 78.169-35.292 17.433-70.85 33.401-110.218 33.54-39.477.139-82.19-5.563-110.785-32.762C58.772 41.99 65.817-2.024 51.868-37.19 36.464-76.024-4.688-106.66.439-148.12c5.301-42.869 41.398-76.158 77.5-99.912 34.995-23.026 78.093-38.286 119.038-29.404z" fill="#E6F2FF"/></svg><svg fill="none" viewBox="0 0 40 40" id="inst" xmlns="http://www.w3.org/2000/svg"><path d="M20 40c11.046 0 20-8.954 20-20S31.046 0 20 0 0 8.954 0 20s8.954 20 20 20z" fill="#BDCDD8"/><path d="M24.042 10h-8.084A5.965 5.965 0 0010 15.958v8.084A5.965 5.965 0 0015.958 30h8.084A5.965 5.965 0 0030 24.042v-8.084A5.965 5.965 0 0024.042 10zm3.946 14.042a3.946 3.946 0 01-3.946 3.946h-8.084a3.946 3.946 0 01-3.946-3.946v-8.084a3.946 3.946 0 013.946-3.946h8.084a3.946 3.946 0 013.946 3.946v8.084z" fill="#2E3646"/><path d="M20 14.828A5.179 5.179 0 0014.827 20 5.179 5.179 0 0020 25.173 5.179 5.179 0 0025.173 20 5.179 5.179 0 0020 14.828zm0 8.333a3.16 3.16 0 110-6.321 3.16 3.16 0 010 6.321zM25.183 16.105a1.24 1.24 0 100-2.479 1.24 1.24 0 000 2.48z" fill="#2E3646"/></svg><svg fill="none" viewBox="0 0 20 20" id="mail" xmlns="http://www.w3.org/2000/svg"><path d="M3.333 3.333h13.334c.916 0 1.666.75 1.666 1.667v10c0 .917-.75 1.667-1.666 1.667H3.333c-.916 0-1.666-.75-1.666-1.667V5c0-.917.75-1.667 1.666-1.667z" stroke="#999" stroke-linecap="round" stroke-linejoin="round"/><path d="M18.333 5L10 10.833 1.667 5" stroke="#999" stroke-linecap="round" stroke-linejoin="round"/></svg><svg fill="none" viewBox="0 0 7 1" id="minus" xmlns="http://www.w3.org/2000/svg"><path d="M0 .5A.5.5 0 01.5 0h6a.5.5 0 010 1h-6A.5.5 0 010 .5z" fill="#E46868"/></svg><svg fill="none" viewBox="0 0 7 7" id="plus" xmlns="http://www.w3.org/2000/svg"><path fill-rule="evenodd" clip-rule="evenodd" d="M3 6.5a.5.5 0 001 0V4h2.5a.5.5 0 000-1H4V.5a.5.5 0 00-1 0V3H.5a.5.5 0 000 1H3v2.5z" fill="#3454F5"/></svg><svg fill="none" viewBox="0 0 319 28" id="queen" xmlns="http://www.w3.org/2000/svg"><path fill-rule="evenodd" clip-rule="evenodd" d="M295.838 14.879c.654 0 2.179.142 2.179 2.548 0 2.407-1.452 2.548-2.179 2.548h-4.646V14.88h4.646zm-4.646-1.274V12.26c0-1.982.653-2.407 2.687-2.407h1.378c.654 0 2.034.142 2.034 1.911 0 1.912-1.38 1.912-2.034 1.912l-4.065-.071zm0-5.38c-2.686 0-4.066 1.345-4.066 3.964v9.273h11.255c1.452 0 3.629-1.345 3.629-3.964 0-1.699-.871-2.832-1.815-3.469.654-.495 1.163-1.344 1.163-2.548 0-2.548-2.179-3.326-3.631-3.326h-6.535v.07zM308.039 17.131c0-2.407 1.379-2.548 2.032-2.548h4.067v5.096h-4.067c-.726 0-2.032-.07-2.032-2.548zm-4.067.142c0 2.69 2.179 3.963 3.631 3.963h10.601v-9.272c0-2.69-1.38-3.964-4.066-3.964h-8.132v1.557h5.445c2.034 0 2.687.425 2.687 2.407v1.345h-6.535c-1.525 0-3.631 1.274-3.631 3.964zM195.131 21.532l-9.149-9.343 6.534-6.583h-2.903l-6.318 6.441v-6.44h-2.469c-1.307 0-2.469 1.06-2.469 2.406v13.59h2.469c1.38 0 2.469-1.062 2.469-2.407v-4.671l6.607 7.078h5.229v-.07zM244.286 17.569c0 1.982-.653 2.406-2.686 2.406h-2.687c-2.032 0-2.686-.424-2.686-2.406V12.26c0-1.982.654-2.407 2.686-2.407h2.687c2.033 0 2.686.425 2.686 2.407v5.309zm0-9.344h-8.131c-2.687 0-4.067 1.345-4.067 3.964v5.309c0 2.69 1.38 3.964 4.067 3.964h8.131c2.687 0 4.067-1.345 4.067-3.964v-5.309c0-2.619-1.38-3.964-4.067-3.964zM207.836 17.569c0 1.982-.654 2.406-2.687 2.406h-2.686c-2.034 0-2.687-.424-2.687-2.406V12.26c0-1.982.653-2.407 2.687-2.407h2.686c2.033 0 2.687.425 2.687 2.407v5.309zm0-9.344h-8.133c-2.685 0-4.065 1.345-4.065 3.964v5.309c0 2.69 1.38 3.964 4.065 3.964h8.133c2.687 0 4.066-1.345 4.066-3.964v-5.309c0-2.619-1.306-3.964-4.066-3.964zM223.665 14.879h-4.719v-2.69c0-1.982.652-2.406 2.686-2.406h2.033c.654 0 2.034.141 2.034 2.548 0 2.477-1.38 2.548-2.034 2.548zm-4.791 1.345h7.187c1.453 0 3.631-1.345 3.631-3.964 0-2.69-2.106-3.964-3.631-3.964h-7.187c-2.688 0-4.067 1.345-4.067 3.964v9.343h2.033c1.089 0 2.034-.92 2.034-1.982v-3.397zM256.339 8.225c-2.687 0-4.066 1.345-4.066 3.964v6.654c0 .92-.581 1.132-1.379 1.132v1.557h3.412a2.04 2.04 0 002.033-1.91V12.26c0-1.982.654-2.407 2.686-2.407h3.631v11.75h2.033c1.089 0 2.034-.92 2.034-1.982V8.296l-10.384-.07zM274.057 12.26c0-1.982.653-2.407 2.686-2.407h2.251c.654 0 2.034.142 2.034 2.549 0 2.406-1.38 2.548-2.034 2.548h-4.937v-2.69zm7.478 3.964c1.452 0 3.631-1.345 3.631-3.964 0-2.69-2.179-3.964-3.631-3.964h-7.478c-2.687 0-4.067 1.345-4.067 3.964v5.309c0 2.69 1.38 3.963 4.067 3.963h9.003v-1.557h-6.317c-2.033 0-2.686-.424-2.686-2.406v-1.345h7.478zM137.563 18.054c0-2.406 1.38-2.548 2.033-2.548h4.647v5.096h-4.647c-.653 0-2.033-.07-2.033-2.548zm-4.066.142c0 2.69 2.106 3.964 3.631 3.964h11.181v-9.273c0-2.69-1.379-3.964-4.066-3.964h-8.713v1.557h6.027c2.033 0 2.686.425 2.686 2.407v1.345h-7.115c-1.453 0-3.631 1.274-3.631 3.964zM114.836 22.16l-7.624-7.787 5.446-5.52h-2.396l-5.301 5.308V8.852h-2.032c-1.09 0-2.034.92-2.034 1.982v3.327l-5.3-5.309h-2.396l5.445 5.521-7.624 7.787h4.357l5.518-5.946v5.946h2.034c1.089 0 2.032-.92 2.032-1.982v-3.893l5.519 5.945 4.356-.07zM128.198 8.852c-1.09 0-2.034.92-2.034 1.982v3.327h-6.317V8.852h-2.033c-1.089 0-2.033.92-2.033 1.982V22.16h2.033c1.089 0 2.033-.92 2.033-1.982v-4.672h6.317v6.654h2.034c1.161 0 2.033-.92 2.033-1.982V8.852h-2.033zM70.69 8.852c-1.09 0-2.034.92-2.034 1.982v3.327H61.76V8.852h-2.034c-1.089 0-2.033.92-2.033 1.982V22.16h2.033c1.09 0 2.034-.92 2.034-1.982v-4.672h6.897v6.654h2.034c1.089 0 2.033-.92 2.033-1.982V8.852H70.69zM49.343 20.32c-2.396 0-3.267-.567-3.267-2.903v-6.37c0-2.407.798-2.903 3.267-2.903h6.462v-1.84h-9.73c-3.267 0-4.864 1.628-4.864 4.813v6.37c0 3.186 1.597 4.814 4.865 4.814h9.73v-1.84h-6.463v-.142zM80.13 12.887c0-1.982.652-2.407 2.686-2.407h2.831c.654 0 2.033.142 2.033 2.548 0 2.407-1.38 2.549-2.033 2.549h-5.59v-2.69h.072zm7.986 3.964c1.452 0 3.63-1.345 3.63-3.964 0-2.69-2.178-3.964-3.63-3.964h-8.06c-2.686 0-4.066 1.345-4.066 3.964v5.309c0 2.69 1.38 3.964 4.066 3.964h9.585v-1.558h-6.898c-2.033 0-2.687-.424-2.687-2.406V16.85h8.06zM162.251 15.506h-5.301c-.653 0-2.033-.142-2.033-2.548 0-2.407 1.38-2.548 2.033-2.548h5.301v5.096zm-7.842-6.654c-1.452 0-3.631 1.345-3.631 3.964 0 2.69 2.106 3.964 3.631 3.964h2.759l-5.518 5.309h3.848l5.155-5.309h1.67v5.309h2.033c1.09 0 2.033-.92 2.033-1.982V8.78h-11.98v.071zM17.694 22.093c-3.924 1.416-4.495 1.416-8.419 0-.285-4.247-3.14-8.777-6.35-11.396 2.925.567 5.494 1.628 7.42 3.752.072-2.973 1.784-6.866 3.068-8.707 1.284 1.77 2.997 5.734 3.068 8.707 1.926-2.124 4.566-3.256 7.42-3.752-3.068 2.62-5.922 7.15-6.207 11.396zM24.829 1H2.069C.928 1 0 1.92 0 3.053v22.792c0 1.132.928 2.053 2.069 2.053h22.76c1.14 0 2.069-.92 2.069-2.053V3.053A2.063 2.063 0 0024.828 1z" fill="#131313"/></svg><svg fill="none" viewBox="0 0 18 18" id="tel" xmlns="http://www.w3.org/2000/svg"><path d="M17.334 13.1v2.5a1.667 1.667 0 01-1.817 1.667 16.492 16.492 0 01-7.192-2.559 16.251 16.251 0 01-5-5A16.492 16.492 0 01.767 2.483 1.667 1.667 0 012.425.667h2.5A1.667 1.667 0 016.592 2.1c.105.8.301 1.586.583 2.342A1.667 1.667 0 016.8 6.2L5.742 7.258a13.334 13.334 0 005 5L11.8 11.2a1.667 1.667 0 011.758-.375c.757.282 1.542.478 2.342.583a1.666 1.666 0 011.434 1.692z" stroke="#999" stroke-linecap="round" stroke-linejoin="round"/></svg></svg>