<svg width="233" height="226" viewBox="0 0 233 226" fill="none" xmlns="http://www.w3.org/2000/svg">
<path fill-rule="evenodd" clip-rule="evenodd" d="M2.97675 2.5636C41.0286 10.8179 58.7221 52.8467 89.5815 76.5761C119.147 99.3107 157.688 108.162 179.57 138.355C207.614 177.052 243.589 223.583 229.122 269.122C214.663 314.636 156.033 326.13 113.195 347.291C77.9032 364.724 42.3452 380.692 2.97675 380.831C-36.5004 380.97 -79.213 375.268 -107.808 348.069C-135.228 321.989 -128.183 277.976 -142.132 242.81C-157.537 203.975 -198.688 173.339 -193.561 131.88C-188.26 89.0108 -152.163 55.7216 -116.061 31.9675C-81.0664 8.94232 -37.9684 -6.31835 2.97675 2.5636Z" fill="#E6F2FF"/>
</svg>
