<svg width="427" height="101" viewBox="0 0 427 101" fill="none" xmlns="http://www.w3.org/2000/svg">
<path fill-rule="evenodd" clip-rule="evenodd" d="M196.977 -277.436C235.029 -269.182 252.722 -227.153 283.581 -203.424C313.147 -180.689 351.688 -171.838 373.57 -141.645C401.614 -102.948 437.589 -56.4173 423.122 -10.8785C408.663 34.6357 350.033 46.13 307.195 67.2907C271.903 84.7241 236.345 100.692 196.977 100.831C157.5 100.97 114.787 95.2677 86.1919 68.0694C58.7723 41.9891 65.8165 -2.02399 51.8676 -37.1903C36.4635 -76.0253 -4.68758 -106.661 0.439053 -148.12C5.73999 -190.989 41.8373 -224.278 77.9393 -248.032C112.934 -271.058 156.032 -286.318 196.977 -277.436Z" fill="#E6F2FF"/>
</svg>
