<svg width="18" height="18" viewBox="0 0 18 18" fill="none" xmlns="http://www.w3.org/2000/svg">
<path d="M17.3335 13.0999V15.5999C17.3344 15.832 17.2869 16.0617 17.1939 16.2744C17.1009 16.487 16.9646 16.6779 16.7936 16.8348C16.6225 16.9917 16.4206 17.1112 16.2008 17.1855C15.9809 17.2599 15.748 17.2875 15.5168 17.2666C12.9525 16.988 10.4893 16.1117 8.32516 14.7083C6.31168 13.4288 4.60461 11.7217 3.32516 9.70825C1.91681 7.53426 1.04036 5.05908 0.766827 2.48325C0.746003 2.25281 0.77339 2.02055 0.847244 1.80127C0.921099 1.58199 1.0398 1.38049 1.1958 1.2096C1.35179 1.03871 1.54166 0.902176 1.75332 0.808686C1.96497 0.715197 2.19378 0.666803 2.42516 0.666585H4.92516C5.32958 0.662604 5.72165 0.805817 6.0283 1.06953C6.33494 1.33324 6.53522 1.69946 6.59183 2.09992C6.69735 2.89997 6.89304 3.68552 7.17516 4.44158C7.28728 4.73985 7.31155 5.06401 7.24508 5.37565C7.17862 5.68729 7.02421 5.97334 6.80016 6.19992L5.74183 7.25825C6.92812 9.34454 8.65554 11.072 10.7418 12.2583L11.8002 11.1999C12.0267 10.9759 12.3128 10.8215 12.6244 10.755C12.9361 10.6885 13.2602 10.7128 13.5585 10.8249C14.3146 11.107 15.1001 11.3027 15.9002 11.4083C16.305 11.4654 16.6747 11.6693 16.9389 11.9812C17.2032 12.2931 17.3436 12.6912 17.3335 13.0999Z" stroke="#999999" stroke-linecap="round" stroke-linejoin="round"/>
</svg>
